<svg id="illustration" xmlns="http://www.w3.org/2000/svg" xmlns:xlink="http://www.w3.org/1999/xlink" width="1630" height="1570" viewBox="0 0 163 157">
    <defs>
        <linearGradient id="linear-gradient" x1="0.027" y1="0.386" x2="1.012" y2="0.708" gradientUnits="objectBoundingBox">
            <stop offset="0" stop-color="#f5f9fd"/>
            <stop offset="0.155" stop-color="#e7eef8"/>
            <stop offset="0.444" stop-color="#d2ddf0"/>
            <stop offset="0.728" stop-color="#c5d3ec"/>
            <stop offset="1" stop-color="#c1d0ea"/>
        </linearGradient>
        <linearGradient id="linear-gradient-2" x1="1.368" y1="0.717" x2="-0.409" y2="0.293" gradientUnits="objectBoundingBox">
            <stop offset="0" stop-color="#fff"/>
            <stop offset="0.837" stop-color="#b7c7de"/>
        </linearGradient>
        <linearGradient id="linear-gradient-3" y1="0.5" x2="1" y2="0.5" gradientUnits="objectBoundingBox">
            <stop offset="0" stop-color="#fff"/>
            <stop offset="1" stop-color="#b7c7de"/>
        </linearGradient>
        <linearGradient id="linear-gradient-5" x1="1" y1="0.5" x2="0" y2="0.5" xlink:href="#linear-gradient-3"/>
        <linearGradient id="linear-gradient-7" x1="1" y1="0.5" x2="0" y2="0.5" gradientUnits="objectBoundingBox">
            <stop offset="0" stop-color="#fff"/>
            <stop offset="1" stop-color="#c1d0ea"/>
        </linearGradient>
        <linearGradient id="linear-gradient-8" y1="0.5" x2="1" y2="0.5" gradientUnits="objectBoundingBox">
            <stop offset="0" stop-color="#b7c7de"/>
            <stop offset="1" stop-color="#fff"/>
        </linearGradient>
        <linearGradient id="linear-gradient-9" x1="0.315" y1="0.809" x2="0.812" y2="-0.019" xlink:href="#linear-gradient-3"/>
        <clipPath id="clip-path">
            <path id="Path_10219" data-name="Path 10219" d="M117.76,24.43s24.281.216,36.787,19.454c12.689,19.521,20.692,85.241-45.728,108.535S14.809,96.067,11.743,88.406s-28.253-58.685,8.033-80.8C57.538-15.4,60.4,20.757,117.76,24.43Z" transform="translate(-0.384)" fill="none"/>
        </clipPath>
        <linearGradient id="linear-gradient-10" x1="0.673" y1="1.292" x2="0.304" y2="0.102" gradientUnits="objectBoundingBox">
            <stop offset="0" stop-color="#f5f9fd"/>
            <stop offset="0.092" stop-color="#f0f5fd"/>
            <stop offset="0.332" stop-color="#e9f0fc"/>
            <stop offset="1" stop-color="#e7effc"/>
        </linearGradient>
        <clipPath id="clip-path-2">
            <path id="Path_10221" data-name="Path 10221" d="M117.376,25.04s24.281.216,36.787,19.454c12.689,19.521,20.692,85.241-45.728,108.535S14.425,96.677,11.359,89.016s-28.253-58.685,8.033-80.8C57.154-14.79,60.012,21.367,117.376,25.04Z" transform="translate(0 -0.61)" fill="none"/>
        </clipPath>
        <linearGradient id="linear-gradient-11" x1="0.915" y1="0.306" x2="-0.006" y2="1.063" gradientUnits="objectBoundingBox">
            <stop offset="0" stop-color="#fff"/>
            <stop offset="0.087" stop-color="#f8fbfe"/>
            <stop offset="0.23" stop-color="#f5f9fd"/>
            <stop offset="0.249" stop-color="#f4f8fd"/>
            <stop offset="0.584" stop-color="#eaf1fc"/>
            <stop offset="1" stop-color="#e7effc"/>
        </linearGradient>
    </defs>
    <path id="Path_10185" data-name="Path 10185" d="M117.376,24.43s24.281.216,36.787,19.454c12.689,19.521,20.692,85.241-45.728,108.535S14.425,96.067,11.359,88.406s-28.253-58.685,8.033-80.8C57.154-15.4,60.012,20.757,117.376,24.43Z" transform="translate(0 0)" fill="url(#linear-gradient)"/>
    <path id="Path_10186" data-name="Path 10186" d="M47.593,154.712l1.018-.43-1.052-.317-.533-2.2L46.64,154l-1.018.373,1.026.376.469,2.237Z" transform="translate(-21.074 -70.108)" fill="#029ce0"/>
    <path id="Path_10187" data-name="Path 10187" d="M76.039,79.556a.768.768,0,1,1-.768-.768A.768.768,0,0,1,76.039,79.556Z" transform="translate(-34.499 -36.397)" fill="#fff"/>
    <g id="Group_10990" data-name="Group 10990" transform="translate(150.515 87.445)">
        <path id="Path_10188" data-name="Path 10188" d="M280.62,165.688a.258.258,0,0,1-.182-.44l2.645-2.645a.258.258,0,1,1,.364.365l-2.645,2.645A.257.257,0,0,1,280.62,165.688Z" transform="translate(-280.362 -162.527)" fill="#ff6584"/>
        <path id="Path_10189" data-name="Path 10189" d="M283.265,165.688a.257.257,0,0,1-.182-.075l-2.645-2.645a.258.258,0,1,1,.365-.365l2.645,2.645a.258.258,0,0,1-.182.44Z" transform="translate(-280.362 -162.527)" fill="#ff6584"/>
    </g>
    <g id="Group_10991" data-name="Group 10991" transform="translate(13.584 31.158)">
        <path id="Path_10190" data-name="Path 10190" d="M25.5,61.072a.258.258,0,0,1-.182-.44l2.645-2.645a.258.258,0,1,1,.365.365L25.686,61a.257.257,0,0,1-.182.075Z" transform="translate(-25.246 -57.911)" fill="#b3b2d8"/>
        <path id="Path_10191" data-name="Path 10191" d="M28.149,61.072A.257.257,0,0,1,27.966,61l-2.645-2.645a.258.258,0,1,1,.365-.365l2.645,2.645a.258.258,0,0,1-.182.44Z" transform="translate(-25.246 -57.911)" fill="#b3b2d8"/>
    </g>
    <g id="Group_10994" data-name="Group 10994" transform="translate(61.379 28.418)">
        <g id="Group_10992" data-name="Group 10992">
            <path id="Path_10192" data-name="Path 10192" d="M114.368,55.352a.166.166,0,0,1,.1-.29l2.41-.127a.166.166,0,1,1,.017.332l-2.41.127A.166.166,0,0,1,114.368,55.352Z" transform="translate(-114.313 -53.793)" fill="#8282bc"/>
            <path id="Path_10193" data-name="Path 10193" d="M116.617,55.514a.166.166,0,0,1-.055-.115l-.127-2.41a.166.166,0,0,1,.332-.017l.127,2.41a.166.166,0,0,1-.277.132Z" transform="translate(-115.293 -52.813)" fill="#8282bc"/>
        </g>
        <g id="Group_10993" data-name="Group 10993" transform="translate(0.282 0.282)">
            <path id="Path_10194" data-name="Path 10194" d="M114.838,53.788a.166.166,0,0,1,.273-.141l1.846,1.556a.166.166,0,0,1-.214.254L114.9,53.9a.166.166,0,0,1-.058-.113Z" transform="translate(-114.838 -53.462)" fill="#8282bc"/>
            <path id="Path_10195" data-name="Path 10195" d="M115.108,55.364a.166.166,0,0,1,.039-.121L116.7,53.4a.166.166,0,1,1,.254.214L115.4,55.457a.166.166,0,0,1-.293-.093Z" transform="translate(-114.962 -53.338)" fill="#8282bc"/>
        </g>
    </g>
    <path id="Path_10196" data-name="Path 10196" d="M242.867,97.67l1.621-.684-1.676-.505-.848-3.509-.615,3.565-1.62.593,1.633.6.746,3.56Z" transform="translate(-111.014 -42.95)" fill="#fff"/>
    <path id="Path_10197" data-name="Path 10197" d="M65.779,136.073a1.314,1.314,0,1,1-1.314-1.314,1.314,1.314,0,0,1,1.314,1.314Z" transform="translate(-29.243 -62.254)" fill="#ff6584"/>
    <path id="Path_10198" data-name="Path 10198" d="M136.945,167.5l-14.876,31.342h46.024L153.051,167.5Z" transform="translate(-56.577 -77.381)" fill="#8282bc" opacity="0.3"/>
    <g id="Group_10998" data-name="Group 10998" transform="translate(62.376 8.149)">
        <path id="Path_10199" data-name="Path 10199" d="M163.079,178.166l-5.258,5.566a1.865,1.865,0,0,1-2.705.006l-5.3-5.559a9.791,9.791,0,0,1-2.718-9.35l.569-1.705,2.058-6.161h13.4l2.065,6.192.569,1.706A9.776,9.776,0,0,1,163.079,178.166Z" transform="translate(-130.376 -82.502)" fill="#8282bc" opacity="0.2"/>
        <path id="Path_10200" data-name="Path 10200" d="M165.535,164.5a5.7,5.7,0,0,1-1.2,5.707l-.027.029-5.3,5.612a1.8,1.8,0,0,1-2.617.006l-5.346-5.606-.028-.029a5.644,5.644,0,0,1-1.261-5.675l1.2-3.586h13.4Z" transform="translate(-131.61 -82.502)" fill="#8282bc" opacity="0.3"/>
        <g id="Group_10995" data-name="Group 10995" transform="translate(0 53.958)">
            <path id="Path_10201" data-name="Path 10201" d="M187.657,132.611,199.739,148.2a.9.9,0,0,0,1.609-.551v-19a5.389,5.389,0,0,0-2.094-4.264l-11.6-8.962Z" transform="translate(-149.25 -115.425)" fill="url(#linear-gradient-2)"/>
            <path id="Path_10202" data-name="Path 10202" d="M129.971,132.611,117.887,148.2a.9.9,0,0,1-1.607-.55v-19a5.392,5.392,0,0,1,2.1-4.267l11.6-8.961Z" transform="translate(-116.28 -115.425)" fill="url(#linear-gradient-3)"/>
        </g>
        <path id="Path_10203" data-name="Path 10203" d="M164.43,52.627q-.311-.967-.648-1.909c-.448-1.256-.927-2.478-1.427-3.663-.625-1.481-1.284-2.9-1.96-4.26q-.638-1.281-1.292-2.48H139.826q-.652,1.2-1.292,2.48c-.676,1.357-1.335,2.779-1.96,4.26-.5,1.185-.979,2.407-1.427,3.663q-.336.942-.648,1.909A54.743,54.743,0,0,0,131.727,69.4a102.016,102.016,0,0,0,.645,11.554c.233,2.043.527,4.024.876,5.933q.1.573.216,1.136.2,1,.418,1.976c.1.445.2.887.308,1.322q.261,1.07.546,2.1.142.515.291,1.019.3,1.008.616,1.973T136.3,98.3q.512,1.376,1.071,2.642.745,1.686,1.567,3.16h21.044q.82-1.471,1.566-3.16c.62-1.4,1.2-2.917,1.732-4.523q.32-.964.617-1.973.148-.5.291-1.019.285-1.03.546-2.1.391-1.605.726-3.3.111-.563.216-1.136c.349-1.909.643-3.89.876-5.933A102.048,102.048,0,0,0,167.2,69.4a54.74,54.74,0,0,0-2.772-16.775Z" transform="translate(-123.415 -26.771)" fill="url(#linear-gradient-3)"/>
        <path id="Path_10204" data-name="Path 10204" d="M164.455,25.874q-.207-.348-.413-.686-.618-1.016-1.222-1.947c-1.738-2.689-3.339-4.829-4.505-6.3-.488-.614-.9-1.111-1.214-1.481a.9.9,0,0,0-1.369,0c-.314.37-.726.866-1.214,1.481-1.166,1.468-2.767,3.609-4.505,6.3q-.6.931-1.222,1.947-.206.339-.413.686-.414.7-.83,1.427-.386.678-.77,1.386h19.277C165.523,27.708,164.987,26.768,164.455,25.874Z" transform="translate(-130.368 -15.145)" fill="#ff6584"/>
        <path id="Path_10205" data-name="Path 10205" d="M154.607,154.376H142.859q.59,1.269,1.225,2.41h21.044q.635-1.139,1.225-2.41Z" transform="translate(-128.557 -79.459)" fill="url(#linear-gradient-5)"/>
        <path id="Path_10206" data-name="Path 10206" d="M164.374,158.552H143.33l-2.1,5.354h25.252Z" transform="translate(-127.803 -81.388)" fill="url(#linear-gradient-5)"/>
        <g id="Group_10996" data-name="Group 10996" transform="translate(14.329 26.71)">
            <path id="Path_10207" data-name="Path 10207" d="M154.63,64.785a11.72,11.72,0,1,0,11.72,11.72,11.72,11.72,0,0,0-11.72-11.72Z" transform="translate(-142.91 -64.785)" fill="url(#linear-gradient-7)"/>
            <path id="Path_10208" data-name="Path 10208" d="M166.085,78.11a9.851,9.851,0,0,0-19.7,0h0a9.851,9.851,0,1,0,19.7,0" transform="translate(-144.514 -66.39)" fill="#029ce0"/>
        </g>
        <path id="Path_10209" data-name="Path 10209" d="M165.365,137.213v8a3.269,3.269,0,0,1-.484,1.714,39.879,39.879,0,0,1-2.578,3.756,2.275,2.275,0,0,1-3.719,0,34.389,34.389,0,0,1-2.474-3.778,3.28,3.28,0,0,1-.438-1.637V137a1.93,1.93,0,0,1,.1-.6l4.066-12.423.692-2.116.094-.287.716,2.4,3.941,12.657A1.931,1.931,0,0,1,165.365,137.213Z" transform="translate(-134.476 -64.309)" fill="url(#linear-gradient-8)"/>
        <path id="Path_10210" data-name="Path 10210" d="M155.89,75.571c-.393-.926-1.562-.891-2.7.324s-1.544,2.348-.926,2.835c.836.66,1.571.6,2.59-.723C155.482,77.188,156.3,76.547,155.89,75.571Z" transform="translate(-132.768 -42.758)" fill="url(#linear-gradient-9)"/>
        <path id="Path_10211" data-name="Path 10211" d="M173.036,91l.37.1-.221-.31.321-.717-.581.532-.358-.114.2.321-.346.712Z" transform="translate(-142.214 -49.757)" fill="#c8d3d7" opacity="0.31"/>
        <path id="Path_10212" data-name="Path 10212" d="M173.456,95.46a.188.188,0,1,1-.188-.188A.188.188,0,0,1,173.456,95.46Z" transform="translate(-142.517 -52.158)" fill="#72a7d3" opacity="0.29"/>
        <path id="Path_10213" data-name="Path 10213" d="M163.889,82.4a.209.209,0,1,1-.209-.209A.209.209,0,0,1,163.889,82.4Z" transform="translate(-138.078 -46.116)" fill="#c8d3d7" opacity="0.11"/>
        <g id="Group_10997" data-name="Group 10997" transform="translate(23.527 42.971)" opacity="0.15">
            <path id="Path_10214" data-name="Path 10214" d="M160.132,96.575a.128.128,0,0,1-.091-.218l1.313-1.313a.128.128,0,1,1,.181.181l-1.313,1.313A.128.128,0,0,1,160.132,96.575Z" transform="translate(-160.004 -95.006)" fill="#fff"/>
            <path id="Path_10215" data-name="Path 10215" d="M161.446,96.575a.127.127,0,0,1-.091-.037l-1.313-1.313a.128.128,0,0,1,.181-.181l1.313,1.313a.128.128,0,0,1-.09.218Z" transform="translate(-160.004 -95.006)" fill="#fff"/>
        </g>
        <path id="Path_10216" data-name="Path 10216" d="M173.178,80.988l.712.189-.426-.6.619-1.379-1.118,1.023-.689-.218.387.617L172,81.993Z" transform="translate(-142.018 -44.734)" fill="#c8d3d7" opacity="0.11"/>
        <path id="Path_10217" data-name="Path 10217" d="M153.315,89.2l.391.1-.233-.328.34-.758-.614.562-.378-.121.213.339-.366.753Z" transform="translate(-133.088 -48.899)" fill="#c8d3d7" opacity="0.11"/>
    </g>
    <g id="Group_10999" data-name="Group 10999" transform="translate(0.207 0)" clip-path="url(#clip-path)">
        <path id="Path_10218" data-name="Path 10218" d="M179.458,249.606l-96,3.01c.114-.78,2.759-22.75,3.044-23.481.234-.691.449-1.384.721-2.068a10.375,10.375,0,0,1,1.384-2.369,8.147,8.147,0,0,1,3.813-2.813,7.229,7.229,0,0,1,1.85-.4,18.378,18.378,0,0,1,.65-2.011,11.562,11.562,0,0,1,6.7-6.6,15.989,15.989,0,0,1,7.26-.411,16.551,16.551,0,0,1,2.714.55,7.849,7.849,0,0,1,3.037-3.99c2.419-1.592,5.668-1.515,8.284-.66a11.075,11.075,0,0,1,2.428,1.141,24.756,24.756,0,0,1,2.927-3.648,18.323,18.323,0,0,1,5.355-3.767,13.431,13.431,0,0,1,12.3.9,13.225,13.225,0,0,1,4.652,4.819c.287-.085.578-.162.877-.222a12.652,12.652,0,0,1,9.732,2,17.8,17.8,0,0,1,5.729,6.777,12.046,12.046,0,0,1,7.5,2.037,12.738,12.738,0,0,1,5.093,12.562C179.489,231.088,179.484,249.471,179.458,249.606Z" transform="translate(-38.852 -92.85)" fill="url(#linear-gradient-10)"/>
    </g>
    <g id="Group_11000" data-name="Group 11000" transform="translate(0 0.328)" clip-path="url(#clip-path-2)">
        <path id="Path_10220" data-name="Path 10220" d="M70.531,252.478l89.452-1.433c-.108-.734-1.181-19.36-1.451-20.049-.222-.65-.425-1.3-.683-1.947a9.752,9.752,0,0,0-1.311-2.23,7.713,7.713,0,0,0-3.612-2.648,6.884,6.884,0,0,0-1.752-.374,17.2,17.2,0,0,0-.615-1.893,10.919,10.919,0,0,0-6.349-6.215,15.236,15.236,0,0,0-6.876-.387,15.77,15.77,0,0,0-2.57.518,7.393,7.393,0,0,0-2.876-3.755c-2.291-1.5-5.369-1.426-7.846-.621a10.523,10.523,0,0,0-2.3,1.074,23.326,23.326,0,0,0-2.772-3.434,17.354,17.354,0,0,0-5.072-3.546,12.79,12.79,0,0,0-11.646.842,12.483,12.483,0,0,0-4.406,4.535c-.272-.08-.548-.152-.831-.209a12.044,12.044,0,0,0-9.217,1.878,16.784,16.784,0,0,0-5.426,6.379,11.462,11.462,0,0,0-7.1,1.917,11.955,11.955,0,0,0-4.824,11.823C70.464,232.835,70.507,252.351,70.531,252.478Z" transform="translate(-32.552 -94.802)" fill="url(#linear-gradient-11)"/>
    </g>
</svg>
