<svg id="Layer_2" data-name="Layer 2" xmlns="http://www.w3.org/2000/svg" width="160" height="161" viewBox="0 0 16 16.1" fill="#D0D2D4">
    <g id="Layer_1" data-name="Layer 1">
        <path id="Path_388" data-name="Path 388" d="M16,7.11a8,8,0,0,0-1.68-4l-.67.67A7.12,7.12,0,0,1,15,7.11Z" fill="rgba(255,255,255,0.8)"/>
        <path id="Path_390" data-name="Path 390" d="M8,1a7.11,7.11,0,0,1,4.31,1.46L13,1.74A8.055,8.055,0,0,0,0,7.11H1A7.11,7.11,0,0,1,8,1Z" fill="rgba(255,255,255,0.8)"/>
        <path id="Path_391" data-name="Path 391" d="M1,9H0a8.07,8.07,0,0,0,7.05,7V15A7.11,7.11,0,0,1,1,9Z" fill="rgba(255,255,255,0.8)"/>
        <path id="Path_392" data-name="Path 392" d="M15,9a7.11,7.11,0,0,1-6,6.1v1A8.07,8.07,0,0,0,16,9Z" fill="rgba(255,255,255,0.8)"/>
        <circle id="Ellipse_202" data-name="Ellipse 202" cx="1.42" cy="1.42" r="1.42" transform="translate(6.58 6.61)" fill="rgba(255,255,255,0.8)"/>
    </g>
</svg>
