<svg id="Layer_2" xmlns="http://www.w3.org/2000/svg" width="160" height="160" viewBox="0 0 16 16" fill="#D0D2D4">
    <g id="Layer_1" >
        <path d="M8,0a8,8,0,1,0,8,8A8,8,0,0,0,8,0ZM8,15.16A7.16,7.16,0,1,1,15.16,8,7.16,7.16,0,0,1,8,15.16Z" fill="rgba(255,255,255,0.8)"/>
        <path d="M7.58,9.31a1.37,1.37,0,0,0,1.71-.9A1.35,1.35,0,0,0,9,7.14l2.41-3.59a.39.39,0,0,0-.1-.55.4.4,0,0,0-.55.11L8.38,6.7a1.365,1.365,0,1,0-.8,2.61ZM7.51,7.68a.6.6,0,1,1,.175.825A.6.6,0,0,1,7.51,7.68Z" fill="rgba(255,255,255,0.8)"/>
        <path d="M8.08,3.92l.49-.84A4.78,4.78,0,0,0,4.85,11.2l.45-.77A3.92,3.92,0,0,1,8.08,3.92Z" fill="rgba(255,255,255,0.8)"/>
        <path d="M11.73,6a3.91,3.91,0,0,1-4.25,5.67l-.48.8a4.78,4.78,0,0,0,5.19-7.29Z" fill="rgba(255,255,255,0.8)"/>
    </g>
</svg>
