<svg id="Layer_2" xmlns="http://www.w3.org/2000/svg" width="160" height="160" viewBox="0 0 16 16" fill="#D0D2D4">
    <g id="Layer_1">
        <path d="M6.23,8A1.86,1.86,0,1,1,8.09,9.82,1.86,1.86,0,0,1,6.23,8M16,7.9A7.9,7.9,0,0,0,9.8.18v.88A7.06,7.06,0,0,1,8.51,15V12.7H8.06A4.78,4.78,0,0,1,3.31,8.33H4.65a3.76,3.76,0,0,0,.19.86,3.46,3.46,0,0,0,6.65-.85h2.08V7.49A5.62,5.62,0,0,0,8.34,2.33V0H7.49A7.91,7.91,0,0,0,6.17,15.63v-.88A7.06,7.06,0,0,1,7.49.87v2.3h.45a4.78,4.78,0,0,1,4.75,4.32h-1.2a3.44,3.44,0,0,0-6.83,0H2.43v.86a5.64,5.64,0,0,0,5.21,5.16v2.33h.85A7.92,7.92,0,0,0,16,7.9"
              fill="rgba(255,255,255,0.8)"/>
    </g>
</svg>
